<svg xmlns="http://www.w3.org/2000/svg" width="16.632" height="14.555" viewBox="0 0 16.632 14.555">
  <path id="Icon_awesome-cubes" data-name="Icon awesome-cubes" d="M15.872,9.337,12.734,8.161V4.637a1.169,1.169,0,0,0-.76-1.095L8.725,2.324a1.156,1.156,0,0,0-.822,0L4.655,3.542a1.169,1.169,0,0,0-.76,1.095V8.161L.757,9.337A1.171,1.171,0,0,0,0,10.432v3.577a1.171,1.171,0,0,0,.646,1.046l3.248,1.624a1.163,1.163,0,0,0,1.046,0l3.375-1.689,3.375,1.689a1.163,1.163,0,0,0,1.046,0l3.248-1.624a1.171,1.171,0,0,0,.646-1.046V10.432a1.169,1.169,0,0,0-.76-1.095Zm-4.242-1.15L8.868,9.223V7.008l2.761-1.2ZM5,4.591,8.316,3.35l3.313,1.241v.019L8.316,5.956,5,4.611Zm2.729,9.456L4.97,15.428v-2.57L7.731,11.6Zm0-3.638L4.418,11.754,1.1,10.409V10.39L4.418,9.149,7.731,10.39Zm7.8,3.638-2.761,1.381v-2.57l2.761-1.26Zm0-3.638-3.313,1.345L8.9,10.409V10.39l3.313-1.241,3.313,1.241Z" transform="translate(0 -2.248)" fill="#fff" opacity="0.8"/>
</svg>
