<svg xmlns="http://www.w3.org/2000/svg" width="18.196" height="14.554" viewBox="0 0 18.196 14.554">
  <path id="Icon_awesome-code" data-name="Icon awesome-code" d="M7.928,14.543l-1.734-.5a.342.342,0,0,1-.233-.424L9.841.249a.342.342,0,0,1,.424-.233L12,.519a.342.342,0,0,1,.233.424L8.351,14.31a.341.341,0,0,1-.424.233Zm-3.241-3.19,1.237-1.319A.341.341,0,0,0,5.9,9.545L3.325,7.279,5.9,5.013a.339.339,0,0,0,.023-.489L4.687,3.205A.341.341,0,0,0,4.2,3.191L.107,7.029a.339.339,0,0,0,0,.5l4.1,3.841a.339.339,0,0,0,.483-.014Zm9.3.017,4.1-3.841a.339.339,0,0,0,0-.5l-4.1-3.844a.344.344,0,0,0-.483.014L12.269,4.522a.341.341,0,0,0,.023.489l2.576,2.269L12.291,9.545a.339.339,0,0,0-.023.489l1.237,1.319a.342.342,0,0,0,.483.017Z" transform="translate(0.002 -0.003)" fill="#fff" opacity="0.8"/>
</svg>
