<svg xmlns="http://www.w3.org/2000/svg" width="29" height="29" viewBox="0 0 29 29">
  <g id="Icon_material-open-in-new" data-name="Icon material-open-in-new" transform="translate(-3.5 -3.5)" fill="#222">
    <path d="M 28.5 32 L 7.5 32 C 5.570089817047119 32 4 30.42991065979004 4 28.5 L 4 7.5 C 4 5.570089817047119 5.570089817047119 4 7.5 4 L 18 4 L 18.5 4 L 18.5 4.5 L 18.5 7.5 L 18.5 8 L 18 8 L 8 8 L 8 28 L 28 28 L 28 18 L 28 17.5 L 28.5 17.5 L 31.5 17.5 L 32 17.5 L 32 18 L 32 28.5 C 32 30.42991065979004 30.42991065979004 32 28.5 32 Z M 13.75500011444092 25.06711006164551 L 13.40145015716553 24.71355056762695 L 11.28645038604736 22.59855079650879 L 10.93288993835449 22.2450008392334 L 11.28645038604736 21.89145088195801 L 25.17790031433105 8 L 21 8 L 20.5 8 L 20.5 7.5 L 20.5 4.5 L 20.5 4 L 21 4 L 31.5 4 L 32 4 L 32 4.5 L 32 15 L 32 15.5 L 31.5 15.5 L 28.5 15.5 L 28 15.5 L 28 15 L 28 10.82209968566895 L 14.10855007171631 24.71355056762695 L 13.75500011444092 25.06711006164551 Z" stroke="none"/>
    <path d="M 28.5 31.5 C 30.14999961853027 31.5 31.5 30.14999961853027 31.5 28.5 L 31.5 18 L 28.5 18 L 28.5 28.5 L 7.5 28.5 L 7.5 7.5 L 18 7.5 L 18 4.5 L 7.5 4.5 C 5.835000038146973 4.5 4.5 5.849999904632568 4.5 7.5 L 4.5 28.5 C 4.5 30.14999961853027 5.835000038146973 31.5 7.5 31.5 L 28.5 31.5 M 13.75500011444092 24.36000061035156 L 28.5 9.614999771118164 L 28.5 15 L 31.5 15 L 31.5 4.5 L 21 4.5 L 21 7.5 L 26.38500022888184 7.5 L 11.64000034332275 22.2450008392334 L 13.75500011444092 24.36000061035156 M 28.5 32.5 L 7.5 32.5 C 5.294390201568604 32.5 3.5 30.70561027526855 3.5 28.5 L 3.5 7.5 C 3.5 5.294390201568604 5.294390201568604 3.5 7.5 3.5 L 19 3.5 L 19 8.5 L 8.5 8.5 L 8.5 27.5 L 27.5 27.5 L 27.5 17 L 32.5 17 L 32.5 28.5 C 32.5 30.70561027526855 30.70561027526855 32.5 28.5 32.5 Z M 13.75500011444092 25.77420997619629 L 10.22579002380371 22.2450008392334 L 23.97077941894531 8.5 L 20 8.5 L 20 3.5 L 32.5 3.5 L 32.5 16 L 27.5 16 L 27.5 12.02921962738037 L 13.75500011444092 25.77420997619629 Z" stroke="none" fill="#fff"/>
  </g>
</svg>
