<svg xmlns="http://www.w3.org/2000/svg" width="15.621" height="15.621" viewBox="0 0 15.621 15.621">
  <path id="Icon_awesome-paint-brush" data-name="Icon awesome-paint-brush" d="M5.1,9.438A3.088,3.088,0,0,0,2.13,11.644a.466.466,0,0,1-.445.3C1.346,11.948.3,11.1,0,10.9c0,2.512,1.158,4.721,3.905,4.721,2.314,0,3.905-1.335,3.905-3.667a2.643,2.643,0,0,0-.03-.279L5.1,9.438ZM13.969,0a1.863,1.863,0,0,0-1.227.5C6.506,6.073,5.857,6.2,5.857,7.844a2.825,2.825,0,0,0,.266,1.181l1.947,1.622a2.807,2.807,0,0,0,.683.092c1.895,0,2.993-1.387,6.442-7.824a3.139,3.139,0,0,0,.424-1.4A1.589,1.589,0,0,0,13.969,0Z" transform="translate(0.001)" fill="#fff" opacity="0.8"/>
</svg>
